<svg xmlns="http://www.w3.org/2000/svg" width="18" height="23" fill="none"><path fill="#8D9AC5" fill-rule="evenodd" d="M8.75 6a3.75 3.75 0 1 0 0 7.5 3.75 3.75 0 0 0 0-7.5M6.5 9.75a2.25 2.25 0 1 1 4.5 0 2.25 2.25 0 0 1-4.5 0" clip-rule="evenodd"/><path fill="#8D9AC5" fill-rule="evenodd" d="M8.75 0C3.867 0 0 4.243 0 9.359c0 1.64.815 3.572 1.84 5.386 1.043 1.842 2.373 3.681 3.539 5.168l.039.05c.57.726 1.054 1.344 1.524 1.771.513.466 1.079.771 1.808.771s1.295-.305 1.808-.77c.47-.428.955-1.046 1.524-1.772l.039-.05c1.166-1.487 2.496-3.326 3.538-5.168 1.026-1.814 1.841-3.746 1.841-5.386C17.5 4.243 13.633 0 8.75 0M1.5 9.359C1.5 4.966 4.797 1.5 8.75 1.5S16 4.966 16 9.359c0 1.226-.64 2.867-1.646 4.647-.99 1.75-2.27 3.523-3.413 4.982-.62.789-1.027 1.305-1.392 1.636-.333.302-.555.382-.799.382s-.466-.08-.8-.382c-.364-.331-.772-.847-1.39-1.636-1.144-1.459-2.424-3.232-3.414-4.982C2.14 12.226 1.5 10.586 1.5 9.359" clip-rule="evenodd"/></svg>