<svg xmlns="http://www.w3.org/2000/svg" width="127" height="58" fill="none"><path fill="#FF8F50" d="M57.362 9.641 59.997 0h28.855l-2.636 9.641H67.003l-6.867 25.664h-9.641zm-9.572 0L50.425 0h-9.641l-2.636 9.641z"/><path fill="#fff" d="M6.626 48.113v1.744H4.361v7.8H2.399v-7.8H.121v-1.744zm9.838 9.544-.694-1.968h-4.009l-.693 1.968H9.04l3.514-9.544h2.424l3.514 9.544zm-4.121-3.626h2.846l-1.42-4.049zm8.49 3.626 3.718-4.98-3.613-4.564h2.41l2.378 3.13 2.378-3.13h2.41l-3.612 4.564 3.718 4.98h-2.523l-2.37-3.375-2.372 3.375zm13.166 0v-9.544h1.981v9.544zm11.931-9.544v1.744h-2.265v7.8h-1.962v-7.8h-2.278v-1.744zm7.678 9.676c-2.807 0-4.881-1.916-4.881-4.907 0-2.999 2.074-4.901 4.88-4.901 2.801 0 4.875 1.902 4.875 4.9 0 2.992-2.074 4.908-4.874 4.908m0-1.816c1.644 0 2.906-1.156 2.906-3.091 0-1.929-1.262-3.078-2.906-3.078s-2.906 1.15-2.906 3.078c0 1.935 1.261 3.09 2.906 3.09m15.035 1.684-.693-1.968h-4.01l-.693 1.968H61.22l3.514-9.544h2.424l3.513 9.544zm-4.12-3.626h2.846l-1.42-4.049zm13.66 3.758c-2.754 0-4.781-1.902-4.781-4.881 0-3.018 2.073-4.927 4.88-4.927 1.843 0 3.369.812 4.201 2.246l-1.737.924c-.502-.977-1.4-1.446-2.463-1.446-1.651 0-2.893 1.136-2.893 3.157 0 1.948 1.162 3.203 2.965 3.203 1.222 0 2.345-.608 2.616-2.001h-2.61v-1.592h4.486v5.185h-1.56v-1.321c-.613.905-1.644 1.453-3.104 1.453m15.056-.132-.694-1.968h-4.008l-.694 1.968h-2.028l3.514-9.544h2.424l3.514 9.544zm-4.121-3.626h2.846l-1.42-4.049zm15.16-4.174h-3.632v2.166h3.137v1.724h-3.137v3.91h-1.995v-9.544h5.628zm10.03 7.8-.694-1.968h-4.009l-.693 1.968h-2.028l3.514-9.544h2.424l3.514 9.544zm-4.122-3.626h2.847l-1.42-4.049zm16.693-5.918-3.137 4.973v4.57h-1.988v-4.523l-3.157-5.02h2.193l1.948 3.25 1.955-3.25z"/></svg>