<svg xmlns="http://www.w3.org/2000/svg" width="22" height="20" fill="none"><path stroke="#8D9AC5" stroke-width="2" d="M1.608 3.648C1 4.936 1 6.774 1 10c0 3.75 0 5.625.955 6.939a5 5 0 0 0 1.106 1.106C4.375 19 6.251 19 10 19h2c3.75 0 5.625 0 6.939-.955a5 5 0 0 0 1.106-1.106C21 15.625 21 13.749 21 10c0-3.249 0-5.09-.621-6.379m-18.771.027q.148-.312.347-.587A5 5 0 0 1 3.06 1.955C4.375 1 6.251 1 10 1h2c3.75 0 5.625 0 6.939.955a5 5 0 0 1 1.106 1.106q.191.263.334.56m-18.771.027L2 4l1.929 1.929c3.333 3.333 5 5 7.071 5s3.738-1.667 7.071-5L20 4l.379-.379"/></svg>