<svg xmlns="http://www.w3.org/2000/svg" width="22" height="14" fill="none"><path fill="#8D9AC5" d="M16.752.505a.91.91 0 0 0-1.269.006.87.87 0 0 0 .006 1.245l2.108 2.051c.856.832 1.442 1.405 1.84 1.89.129.159.23.297.307.423H1.772A.89.89 0 0 0 .875 7c0 .486.401.88.897.88h17.973a4 4 0 0 1-.308.422c-.398.486-.984 1.059-1.84 1.891l-2.108 2.051a.87.87 0 0 0-.006 1.245.91.91 0 0 0 1.269.006l2.146-2.088c.808-.787 1.468-1.43 1.937-2.002.487-.596.84-1.2.934-1.926a3.7 3.7 0 0 0 0-.958c-.094-.726-.447-1.33-.934-1.926-.469-.573-1.13-1.215-1.937-2.002z"/></svg>