<svg xmlns="http://www.w3.org/2000/svg" width="36" height="33" fill="none"><path fill="#8D9AC5" d="M24.094 16.67c-.694 0-1.256.515-1.256 1.15 0 .636.562 1.151 1.256 1.151h4.564c.694 0 1.256-.515 1.256-1.15 0-.636-.562-1.152-1.256-1.152z"/><path fill="#8D9AC5" fill-rule="evenodd" d="M30.807 3.264c.13.682.161 1.491.17 2.417q.218.105.428.222a9.3 9.3 0 0 1 3.177 2.913c.874 1.307 1.191 2.822 1.322 4.748.096 1.4.096 3.104.096 5.197v.043c0 1.2 0 2.269-.017 3.22-.054 2.958-.263 5.05-1.401 6.753a9.3 9.3 0 0 1-3.177 2.913c-1.237.695-2.64 1.004-4.353 1.153-1.68.147-3.784.147-6.468.147h-5.153c-2.684 0-4.787 0-6.468-.147-1.713-.149-3.116-.458-4.353-1.153a9.3 9.3 0 0 1-3.177-2.913c-.758-1.134-1.095-2.42-1.258-3.99-.16-1.541-.16-3.47-.16-5.93v-.807a71 71 0 0 1-.008-2.52q.007-.723.008-1.497v-.066c0-2.628 0-4.69.185-6.326.19-1.67.583-3.03 1.47-4.198A8.5 8.5 0 0 1 3.6 1.6C4.835.742 6.28.36 8.044.178 9.764 0 11.93 0 14.671 0h9.152c1.336 0 2.47 0 3.372.116.965.124 1.85.4 2.559 1.077.614.587.906 1.296 1.053 2.071m-7.072-.962c1.448 0 2.404.002 3.112.093.667.086.926.23 1.095.39.156.15.297.376.392.875.063.333.098.741.116 1.263a21 21 0 0 0-2.248-.234c-1.523-.086-3.374-.086-5.645-.086H15.43c-2.684 0-4.787 0-6.468.147-1.713.15-3.116.459-4.353 1.153a9.5 9.5 0 0 0-1.823 1.328c.183-1.116.484-1.868.943-2.472a6.1 6.1 0 0 1 1.385-1.324c.732-.509 1.675-.81 3.211-.97 1.563-.162 3.586-.163 6.423-.163zM5.922 7.866c.776-.436 1.75-.692 3.278-.825 1.549-.135 3.533-.136 6.297-.136h5.021c2.317 0 4.092 0 5.53.082 1.435.08 2.439.24 3.23.515.296.103.564.223.815.364a6.85 6.85 0 0 1 2.348 2.153c.413.617.676 1.368.834 2.466h-9.181c-3.215 0-5.82 2.388-5.82 5.335s2.605 5.336 5.82 5.336h9.344c-.097 2.24-.363 3.47-.997 4.419a6.85 6.85 0 0 1-2.348 2.152c-.776.436-1.75.692-3.279.825-1.548.135-3.532.136-6.296.136h-5.021c-2.764 0-4.748 0-6.297-.136-1.529-.133-2.502-.389-3.278-.825a6.85 6.85 0 0 1-2.348-2.152c-.476-.712-.755-1.604-.9-3.006-.147-1.42-.149-3.239-.149-5.772s.002-4.353.149-5.773c.145-1.402.424-2.294.9-3.005a6.85 6.85 0 0 1 2.348-2.153m14.862 9.954c0-1.675 1.482-3.034 3.31-3.034h9.358c.037 1.111.037 2.422.037 4.01 0 .743 0 1.426-.003 2.058h-9.392c-1.828 0-3.31-1.358-3.31-3.034" clip-rule="evenodd"/></svg>