<svg xmlns="http://www.w3.org/2000/svg" width="40" height="23" fill="none"><path fill="#8D9AC5" d="M19.714 0a5.75 5.75 0 1 0 0 11.5 5.75 5.75 0 0 0 0-11.5m0 3.286a2.464 2.464 0 1 1 0 4.928 2.464 2.464 0 0 1 0-4.928M9.036 4.929a4.107 4.107 0 0 0-4.107 4.107c0 1.544.87 2.875 2.119 3.581a4.1 4.1 0 0 0 1.988.526c.723 0 1.396-.197 1.988-.526a4.3 4.3 0 0 0 1.495-1.43 8.9 8.9 0 0 1-1.84-5.437v-.46a3.9 3.9 0 0 0-1.643-.361m21.357 0c-.592 0-1.15.131-1.643.361v.46c0 1.971-.64 3.877-1.84 5.438.197.312.41.558.657.805.263.246.526.46.838.624a4.1 4.1 0 0 0 1.988.526c.723 0 1.396-.197 1.988-.526 1.248-.706 2.119-2.037 2.119-3.581a4.107 4.107 0 0 0-4.107-4.107m-10.679 9.857c-3.844 0-11.5 1.922-11.5 5.75V23h23v-2.464c0-3.828-7.655-5.75-11.5-5.75m-11.976.903C4.568 16.067 0 17.677 0 20.536V23h4.929v-3.17c0-1.66 1.133-3.04 2.809-4.14m23.953 0c1.675 1.101 2.809 2.481 2.809 4.14V23h4.929v-2.464c0-2.859-4.568-4.469-7.738-4.847m-11.977 2.382c2.514 0 5.323.822 6.95 1.643H12.765c1.626-.821 4.436-1.643 6.95-1.643"/></svg>