<svg xmlns="http://www.w3.org/2000/svg" width="86" height="17" fill="none"><path fill="#F6BB06" d="M6.348 3.75c.878-1.575 1.318-2.363 1.974-2.363.657 0 1.096.788 1.975 2.364l.227.408c.25.447.375.671.57.819s.436.203.92.312l.442.1c1.706.386 2.559.58 2.762 1.232s-.379 1.332-1.542 2.692l-.3.352c-.33.386-.496.58-.57.819-.075.239-.05.497 0 1.012l.046.47c.175 1.814.263 2.721-.268 3.124-.531.404-1.33.036-2.927-.7l-.413-.19c-.454-.209-.681-.313-.922-.313-.24 0-.467.104-.92.313l-.414.19c-1.597.736-2.396 1.104-2.927.7-.532-.403-.444-1.31-.268-3.124l.046-.47c.05-.515.075-.773 0-1.012-.074-.24-.24-.433-.57-.82l-.3-.35c-1.164-1.36-1.745-2.04-1.542-2.693s1.056-.846 2.762-1.232l.441-.1c.485-.11.727-.164.922-.312.194-.148.32-.372.569-.82zM23.587 3.75c.879-1.575 1.318-2.363 1.975-2.363.656 0 1.096.788 1.974 2.364l.227.408c.25.447.375.671.57.819s.436.203.921.312l.441.1c1.706.386 2.56.58 2.762 1.232.203.652-.378 1.332-1.541 2.692l-.301.352c-.33.386-.496.58-.57.819-.075.239-.05.497 0 1.012l.046.47c.176 1.814.264 2.721-.268 3.124-.53.404-1.33.036-2.927-.7l-.413-.19c-.454-.209-.68-.313-.921-.313-.24 0-.468.104-.922.313l-.413.19c-1.597.736-2.396 1.104-2.927.7-.531-.403-.443-1.31-.268-3.124l.046-.47c.05-.515.075-.773 0-1.012-.074-.24-.239-.433-.57-.82l-.3-.35c-1.163-1.36-1.745-2.04-1.542-2.693s1.056-.846 2.762-1.232l.441-.1c.485-.11.727-.164.922-.312s.32-.372.569-.82zM40.827 3.75c.878-1.575 1.317-2.363 1.974-2.363s1.096.788 1.974 2.364l.227.408c.25.447.375.671.57.819s.437.203.921.312l.442.1c1.706.386 2.559.58 2.761 1.232.203.652-.378 1.332-1.541 2.692l-.3.352c-.331.386-.497.58-.571.819s-.05.497 0 1.012l.046.47c.176 1.814.264 2.721-.267 3.124-.532.404-1.33.036-2.928-.7l-.413-.19c-.454-.209-.68-.313-.921-.313-.24 0-.468.104-.921.313l-.414.19c-1.597.736-2.395 1.104-2.927.7-.531-.403-.443-1.31-.267-3.124l.045-.47c.05-.515.075-.773 0-1.012-.074-.24-.239-.433-.57-.82l-.3-.35c-1.163-1.36-1.745-2.04-1.542-2.693s1.056-.846 2.762-1.232l.441-.1c.485-.11.728-.164.922-.312s.32-.372.57-.82zM58.066 3.75c.878-1.575 1.317-2.363 1.974-2.363s1.096.788 1.974 2.364l.228.408c.25.447.374.671.569.819s.437.203.922.312l.441.1c1.706.386 2.559.58 2.762 1.232s-.379 1.332-1.542 2.692l-.3.352c-.331.386-.496.58-.57.819-.075.239-.05.497 0 1.012l.045.47c.176 1.814.264 2.721-.267 3.124-.531.404-1.33.036-2.927-.7l-.413-.19c-.454-.209-.681-.313-.922-.313-.24 0-.467.104-.921.313l-.413.19c-1.598.736-2.396 1.104-2.927.7-.532-.403-.444-1.31-.268-3.124l.045-.47c.05-.515.075-.773.001-1.012-.074-.24-.24-.433-.57-.82l-.3-.35c-1.164-1.36-1.745-2.04-1.542-2.693s1.055-.846 2.761-1.232l.442-.1c.484-.11.727-.164.922-.312.194-.148.319-.372.569-.82zM75.305 3.75c.879-1.575 1.318-2.363 1.974-2.363.657 0 1.096.788 1.975 2.364l.227.408c.25.447.375.671.57.819s.436.203.921.312l.441.1c1.706.386 2.559.58 2.762 1.232s-.378 1.332-1.542 2.692l-.3.352c-.331.386-.496.58-.57.819-.075.239-.05.497 0 1.012l.045.47c.176 1.814.265 2.721-.267 3.124-.531.404-1.33.036-2.927-.7l-.413-.19c-.454-.209-.68-.313-.922-.313-.24 0-.467.104-.92.313l-.414.19c-1.597.736-2.396 1.104-2.927.7-.531-.403-.444-1.31-.268-3.124l.046-.47c.05-.515.075-.773 0-1.012-.074-.24-.24-.433-.57-.82l-.3-.35c-1.163-1.36-1.745-2.04-1.542-2.693s1.056-.846 2.762-1.232l.441-.1c.485-.11.727-.164.922-.312.194-.148.32-.372.569-.82z"/></svg>