<svg xmlns="http://www.w3.org/2000/svg" width="800" height="800" fill="#8d9ac5" viewBox="0 0 24 24"><path d="M20 3a1 1 0 0 0 0-2H4a1 1 0 0 0 0 2h1.049c.146 1.836.743 5.75 3.194 8-2.585 2.511-3.111 7.734-3.216 10H4a1 1 0 0 0 0 2h16a1 1 0 0 0 0-2h-1.027c-.105-2.264-.631-7.487-3.216-10 2.451-2.252 3.048-6.166 3.194-8Zm-6.42 7.126a1 1 0 0 0 .035 1.767c2.437 1.228 3.2 6.311 3.355 9.107H7.03c.151-2.8.918-7.879 3.355-9.107a1 1 0 0 0 .035-1.767C7.881 8.717 7.227 4.844 7.058 3h9.884c-.169 1.844-.823 5.717-3.362 7.126M12 13s3 2.4 3 3.6V20H9v-3.4c0-1.2 3-3.6 3-3.6"/></svg>