<svg xmlns="http://www.w3.org/2000/svg" width="83" height="16" fill="none"><path stroke="#11AD87" stroke-width=".729" d="M7.921 14.843A6.921 6.921 0 1 0 7.921 1a6.921 6.921 0 0 0 0 13.843Z"/><path fill="#11AD87" d="M7.921 13.75a5.829 5.829 0 1 0 0-11.657 5.829 5.829 0 0 0 0 11.657"/><path stroke="#11AD87" stroke-width=".729" d="M24.764 14.843a6.921 6.921 0 1 0 0-13.843 6.921 6.921 0 0 0 0 13.843Z"/><path fill="#11AD87" d="M24.764 13.75a5.829 5.829 0 1 0 0-11.657 5.829 5.829 0 0 0 0 11.657"/><path stroke="#11AD87" stroke-width=".729" d="M41.607 14.843a6.921 6.921 0 1 0 0-13.843 6.921 6.921 0 0 0 0 13.843Z"/><path fill="#11AD87" d="M41.607 13.75a5.829 5.829 0 1 0 0-11.657 5.829 5.829 0 0 0 0 11.657"/><path stroke="#11AD87" stroke-width=".729" d="M58.45 14.843A6.921 6.921 0 1 0 58.45 1a6.921 6.921 0 0 0 0 13.843Z"/><path fill="#11AD87" d="M58.45 13.75a5.829 5.829 0 1 0 0-11.657 5.829 5.829 0 0 0 0 11.657"/><path stroke="#11AD87" stroke-width=".729" d="M75.293 14.843a6.921 6.921 0 1 0 0-13.843 6.921 6.921 0 0 0 0 13.843Z"/><path fill="#11AD87" d="M75.293 13.75a5.829 5.829 0 1 0 0-11.657 5.829 5.829 0 0 0 0 11.657"/></svg>