<svg width="83" height="16" viewBox="0 0 83 16" fill="none" xmlns="http://www.w3.org/2000/svg">
<path d="M7.92146 14.8429C11.7441 14.8429 14.8429 11.7441 14.8429 7.92146C14.8429 4.09884 11.7441 1 7.92146 1C4.09884 1 1 4.09884 1 7.92146C1 11.7441 4.09884 14.8429 7.92146 14.8429Z" stroke="#11AD87" stroke-width="0.728576"/>
<path d="M7.92137 13.75C11.1404 13.75 13.75 11.1405 13.75 7.92142C13.75 4.70238 11.1404 2.09283 7.92137 2.09283C4.70233 2.09283 2.09278 4.70238 2.09278 7.92142C2.09278 11.1405 4.70233 13.75 7.92137 13.75Z" fill="#11AD87"/>
<path d="M24.7644 14.8429C28.587 14.8429 31.6859 11.7441 31.6859 7.92146C31.6859 4.09884 28.587 1 24.7644 1C20.9418 1 17.8429 4.09884 17.8429 7.92146C17.8429 11.7441 20.9418 14.8429 24.7644 14.8429Z" stroke="#11AD87" stroke-width="0.728576"/>
<path d="M24.7643 13.75C27.9833 13.75 30.5929 11.1405 30.5929 7.92142C30.5929 4.70238 27.9833 2.09283 24.7643 2.09283C21.5453 2.09283 18.9357 4.70238 18.9357 7.92142C18.9357 11.1405 21.5453 13.75 24.7643 13.75Z" fill="#11AD87"/>
<path d="M41.6073 14.8429C45.4299 14.8429 48.5288 11.7441 48.5288 7.92146C48.5288 4.09884 45.4299 1 41.6073 1C37.7847 1 34.6859 4.09884 34.6859 7.92146C34.6859 11.7441 37.7847 14.8429 41.6073 14.8429Z" stroke="#11AD87" stroke-width="0.728576"/>
<path d="M41.6072 13.75C44.8263 13.75 47.4358 11.1405 47.4358 7.92142C47.4358 4.70238 44.8263 2.09283 41.6072 2.09283C38.3882 2.09283 35.7786 4.70238 35.7786 7.92142C35.7786 11.1405 38.3882 13.75 41.6072 13.75Z" fill="#11AD87"/>
<path d="M58.4502 14.8429C62.2729 14.8429 65.3717 11.7441 65.3717 7.92146C65.3717 4.09884 62.2729 1 58.4502 1C54.6276 1 51.5288 4.09884 51.5288 7.92146C51.5288 11.7441 54.6276 14.8429 58.4502 14.8429Z" stroke="#11AD87" stroke-width="0.728576"/>
<path d="M58.4501 13.75C61.6692 13.75 64.2787 11.1405 64.2787 7.92142C64.2787 4.70238 61.6692 2.09283 58.4501 2.09283C55.2311 2.09283 52.6216 4.70238 52.6216 7.92142C52.6216 11.1405 55.2311 13.75 58.4501 13.75Z" fill="#11AD87"/>
<path d="M75.2932 14.8429C79.1158 14.8429 82.2146 11.7441 82.2146 7.92146C82.2146 4.09884 79.1158 1 75.2932 1C71.4705 1 68.3717 4.09884 68.3717 7.92146C68.3717 11.7441 71.4705 14.8429 75.2932 14.8429Z" stroke="#11AD87" stroke-width="0.728576"/>
<path d="M75.2931 13.75C78.5121 13.75 81.1217 11.1405 81.1217 7.92142C81.1217 4.70238 78.5121 2.09283 75.2931 2.09283C72.074 2.09283 69.4645 4.70238 69.4645 7.92142C69.4645 11.1405 72.074 13.75 75.2931 13.75Z" fill="#11AD87"/>
</svg>
